ffmpeg version 2025-06-28-git-cfd1f81e7d-full_build-www.gyan.dev Copyright (c) 2000-2025 the FFmpeg developers
  built with gcc 15.1.0 (Rev4, Built by MSYS2 project)
  configuration: --enable-gpl --enable-version3 --enable-static --disable-w32threads --disable-autodetect --enable-fontconfig --enable-iconv --enable-gnutls --enable-lcms2 --enable-libxml2 --enable-gmp --enable-bzlib --enable-lzma --enable-libsnappy --enable-zlib --enable-librist --enable-libsrt --enable-libssh --enable-libzmq --enable-avisynth --enable-libbluray --enable-libcaca --enable-libdvdnav --enable-libdvdread --enable-sdl2 --enable-libaribb24 --enable-libaribcaption --enable-libdav1d --enable-libdavs2 --enable-libopenjpeg --enable-libquirc --enable-libuavs3d --enable-libxevd --enable-libzvbi --enable-liboapv --enable-libqrencode --enable-librav1e --enable-libsvtav1 --enable-libvvenc --enable-libwebp --enable-libx264 --enable-libx265 --enable-libxavs2 --enable-libxeve --enable-libxvid --enable-libaom --enable-libjxl --enable-libvpx --enable-mediafoundation --enable-libass --enable-frei0r --enable-libfreetype --enable-libfribidi --enable-libharfbuzz --enable-liblensfun --enable-libvidstab --enable-libvmaf --enable-libzimg --enable-amf --enable-cuda-llvm --enable-cuvid --enable-dxva2 --enable-d3d11va --enable-d3d12va --enable-ffnvcodec --enable-libvpl --enable-nvdec --enable-nvenc --enable-vaapi --enable-libshaderc --enable-vulkan --enable-libplacebo --enable-opencl --enable-libcdio --enable-openal --enable-libgme --enable-libmodplug --enable-libopenmpt --enable-libopencore-amrwb --enable-libmp3lame --enable-libshine --enable-libtheora --enable-libtwolame --enable-libvo-amrwbenc --enable-libcodec2 --enable-libilbc --enable-libgsm --enable-liblc3 --enable-libopencore-amrnb --enable-libopus --enable-libspeex --enable-libvorbis --enable-ladspa --enable-libbs2b --enable-libflite --enable-libmysofa --enable-librubberband --enable-libsoxr --enable-chromaprint
  libavutil      60.  3.100 / 60.  3.100
  libavcodec     62.  4.100 / 62.  4.100
  libavformat    62.  1.101 / 62.  1.101
  libavdevice    62.  0.100 / 62.  0.100
  libavfilter    11.  0.100 / 11.  0.100
  libswscale      9.  0.100 /  9.  0.100
  libswresample   6.  0.100 /  6.  0.100
Input #0, mov,mp4,m4a,3gp,3g2,mj2, from 'temp.mp4':
  Metadata:
    major_brand     : isom
    minor_version   : 512
    compatible_brands: isomiso2avc1mp41
    encoder         : Lavf62.1.101
  Duration: 00:08:34.07, start: 0.000000, bitrate: 12018 kb/s
  Stream #0:0[0x1](eng): Video: h264 (Main) (avc1 / 0x31637661), yuv420p(progressive), 1080x1920 [SAR 1:1 DAR 9:16], 11843 kb/s, 60 fps, 60 tbr, 15360 tbn, start 0.021029 (default)
    Metadata:
      handler_name    : ?Mainconcept Video Media Handler
      vendor_id       : [0][0][0][0]
      encoder         : Lavc62.4.100 h264_nvenc
  Stream #0:1[0x2](eng): Audio: aac (LC) (mp4a / 0x6134706D), 48000 Hz, stereo, fltp, 163 kb/s (default)
    Metadata:
      handler_name    : #Mainconcept MP4 Sound Media Handler
      vendor_id       : [0][0][0][0]
Input #1, mp3, from 'C:/Users/Admin/Music\Hollow Coves - These Memories (Official Music Video).mp3':
  Metadata:
    major_brand     : dash
    minor_version   : 0
    compatible_brands: iso6mp41
    encoder         : Lavf58.76.100
  Duration: 00:05:13.38, start: 0.025057, bitrate: 128 kb/s
  Stream #1:0: Audio: mp3 (mp3float), 44100 Hz, stereo, fltp, 128 kb/s, start 0.025057
    Metadata:
      encoder         : Lavc58.13
Stream mapping:
  Stream #0:1 (aac) -> amix
  Stream #1:0 (mp3float) -> volume:default
  Stream #0:0 -> #0:0 (copy)
  amix:default -> Stream #0:1 (aac)
Press [q] to stop, [?] for help
Output #0, mp4, to 'E:/New folder\1.mp4':
  Metadata:
    major_brand     : isom
    minor_version   : 512
    compatible_brands: isomiso2avc1mp41
    encoder         : Lavf62.1.101
  Stream #0:0(eng): Video: h264 (Main) (avc1 / 0x31637661), yuv420p(progressive), 1080x1920 [SAR 1:1 DAR 9:16], q=2-31, 11843 kb/s, 60 fps, 60 tbr, 15360 tbn (default)
    Metadata:
      handler_name    : ?Mainconcept Video Media Handler
      vendor_id       : [0][0][0][0]
      encoder         : Lavc62.4.100 h264_nvenc
  Stream #0:1: Audio: aac (LC) (mp4a / 0x6134706D), 48000 Hz, stereo, fltp, 128 kb/s
    Metadata:
      encoder         : Lavc62.4.100 aac
frame= 1355 fps=0.0 q=-1.0 size=   32512KiB time=00:00:22.63 bitrate=11766.8kbits/s speed=43.9x elapsed=0:00:00.51    frame= 2853 fps=2766 q=-1.0 size=   69376KiB time=00:00:47.78 bitrate=11893.0kbits/s speed=46.3x elapsed=0:00:01.03    frame= 4153 fps=2685 q=-1.0 size=  101632KiB time=00:01:09.29 bitrate=12015.6kbits/s speed=44.8x elapsed=0:00:01.54    frame= 5791 fps=2788 q=-1.0 size=  141824KiB time=00:01:36.55 bitrate=12032.8kbits/s speed=46.5x elapsed=0:00:02.07    frame= 7363 fps=2840 q=-1.0 size=  178944KiB time=00:02:02.75 bitrate=11942.0kbits/s speed=47.3x elapsed=0:00:02.59    frame= 8899 fps=2863 q=-1.0 size=  217088KiB time=00:02:28.37 bitrate=11985.9kbits/s speed=47.7x elapsed=0:00:03.10    frame=10372 fps=2862 q=-1.0 size=  251136KiB time=00:02:52.97 bitrate=11894.0kbits/s speed=47.7x elapsed=0:00:03.62    frame=11948 fps=2891 q=-1.0 size=  290048KiB time=00:03:19.21 bitrate=11927.5kbits/s speed=48.2x elapsed=0:00:04.13    frame=13639 fps=2929 q=-1.0 size=  331776KiB time=00:03:47.58 bitrate=11942.5kbits/s speed=48.9x elapsed=0:00:04.65    frame=15186 fps=2936 q=-1.0 size=  369664KiB time=00:04:13.18 bitrate=11960.9kbits/s speed=  49x elapsed=0:00:05.17    frame=17068 fps=2993 q=-1.0 size=  413952KiB time=00:04:44.52 bitrate=11918.6kbits/s speed=49.9x elapsed=0:00:05.70    frame=18396 fps=2958 q=-1.0 size=  446720KiB time=00:05:06.64 bitrate=11934.1kbits/s speed=49.3x elapsed=0:00:06.21    frame=19824 fps=2937 q=-1.0 size=  481792KiB time=00:05:30.49 bitrate=11942.2kbits/s speed=  49x elapsed=0:00:06.74    frame=21228 fps=2922 q=-1.0 size=  515840KiB time=00:05:53.87 bitrate=11941.4kbits/s speed=48.7x elapsed=0:00:07.26    frame=22724 fps=2921 q=-1.0 size=  551936KiB time=00:06:18.75 bitrate=11937.8kbits/s speed=48.7x elapsed=0:00:07.78    frame=24256 fps=2924 q=-1.0 size=  589312KiB time=00:06:44.32 bitrate=11939.9kbits/s speed=48.7x elapsed=0:00:08.29    frame=25752 fps=2922 q=-1.0 size=  626432KiB time=00:07:09.24 bitrate=11955.2kbits/s speed=48.7x elapsed=0:00:08.81    frame=27364 fps=2929 q=-1.0 size=  665600KiB time=00:07:36.12 bitrate=11954.1kbits/s speed=48.8x elapsed=0:00:09.34    frame=28652 fps=2907 q=-1.0 size=  697344KiB time=00:07:57.58 bitrate=11961.4kbits/s speed=48.5x elapsed=0:00:09.85    frame=29776 fps=2874 q=-1.0 size=  725248KiB time=00:08:16.34 bitrate=11970.1kbits/s speed=47.9x elapsed=0:00:10.35    [out#0/mp4 @ 0000025584af9d80] video:743150KiB audio:8247KiB subtitle:0KiB other streams:0KiB global headers:0KiB muxing overhead: 0.106866%
frame=30841 fps=2834 q=-1.0 Lsize=  752200KiB time=00:08:34.00 bitrate=11988.3kbits/s speed=47.2x elapsed=0:00:10.88    
[aac @ 00000255845b5180] Qavg: 554.095
